<svg viewBox="0 0 1024 1024" focusable="false" data-icon="DaiBanRenWu" width="1em" height="1em" aria-hidden="true"><defs><style/></defs><path fill="#29ABE2" d="M900 144H696.338v-35c0-24.853-20.147-45-45-45s-45 20.147-45 45v35H417.662v-35c0-24.853-20.147-45-45-45s-45 20.147-45 45v35H124c-33.137 0-60 26.863-60 60v696c0 33.137 26.863 60 60 60h776c33.137 0 60-26.863 60-60V204c0-33.137-26.863-60-60-60zM763.023 604.18L480.18 887.023c-17.574 17.574-46.066 17.574-63.64 0L260.977 731.459c-17.574-17.574-17.574-46.066 0-63.64 17.574-17.574 46.066-17.574 63.64 0L448.36 791.563 699.383 540.54c17.574-17.574 46.066-17.574 63.64 0 17.574 17.574 17.574 46.067 0 63.64zM871.5 394.853c0 26.591-21.556 48.147-48.147 48.147H200.647c-26.591 0-48.147-21.556-48.147-48.147V282.147c0-26.591 21.556-48.147 48.147-48.147h127.015v35c0 24.853 20.147 45 45 45s45-20.147 45-45v-35h188.675v35c0 24.853 20.147 45 45 45s45-20.147 45-45v-35h127.015c26.591 0 48.147 21.556 48.147 48.147v112.706z"/></svg>