<svg viewBox="0 0 1024 1024" focusable="false" data-icon="TongXunLu" width="1em" height="1em" aria-hidden="true" fill="currentColor"><defs><style/></defs><path d="M900 64H124c-33.137 0-60 26.863-60 60v173h165.62c24.853 0 45 20.147 45 45s-20.147 45-45 45H64v80h165.62c24.853 0 45 20.147 45 45s-20.147 45-45 45H64v80h165.62c24.853 0 45 20.147 45 45s-20.147 45-45 45H64v173c0 33.137 26.863 60 60 60h776c33.137 0 60-26.863 60-60V124c0-33.137-26.863-60-60-60zM360.592 759.808c0-137.577 108.154-249.889 244.076-256.562-60.18-6.391-107.064-57.311-107.064-119.186 0-66.201 53.667-119.868 119.868-119.868S737.34 317.859 737.34 384.06c0 61.875-46.884 112.795-107.064 119.186 135.922 6.673 244.076 118.985 244.076 256.562h-513.76z"/></svg>