<svg viewBox="0 0 1024 1024" focusable="false" data-icon="Weixin" width="1em" height="1em" aria-hidden="true" fill="currentColor"><defs><style/></defs><path d="M921.6 853.333333c-19.182933 17.339733-109.226667-21.742933-133.870933-12.629333a204.8 204.8 0 0 1-241.322667-78.7456 323.584 323.584 0 0 1-248.081067-3.413333C272.759467 747.52 158.208 802.133333 136.533333 785.066667c-26.4192-20.48 41.130667-113.834667 22.186667-141.585067A324.266667 324.266667 0 1 1 750.250667 447.146667a204.322133 204.322133 0 0 1 148.650666 295.287466C887.466667 764.381867 939.793067 836.881067 921.6 853.333333z m-238.933333-409.6a253.405867 253.405867 0 0 0-256-238.933333 256 256 0 0 0-211.626667 400.349867c12.322133 17.783467 7.748267 63.351467 23.893333 77.5168 22.493867 19.7632 67.447467 6.212267 95.880534 17.066666a255.0784 255.0784 0 0 0 184.32-0.512A203.093333 203.093333 0 0 1 512 648.533333a199.748267 199.748267 0 0 1 170.666667-204.8c-12.9024-5.051733 11.3664-1.9456 0 0z m162.884266 250.333867a136.533333 136.533333 0 1 0-92.9792 86.254933c24.4736-6.621867 83.694933 22.596267 100.7616 4.744534 13.073067-13.653333-14.2336-72.738133-7.7824-90.999467zM785.066667 648.533333a34.133333 34.133333 0 1 1 34.133333-34.133333 34.133333 34.133333 0 0 1-34.133333 34.133333z m-102.4 0a34.133333 34.133333 0 1 1 34.133333-34.133333 34.133333 34.133333 0 0 1-34.133333 34.133333z m-153.6-204.8a51.2 51.2 0 1 1 51.2-51.2 51.2 51.2 0 0 1-51.2 51.2z m-204.8 0a51.2 51.2 0 1 1 51.2-51.2A51.2 51.2 0 0 1 324.266667 443.733333z"/></svg>